<svg height="1102" width="720" xmlns="http://www.w3.org/2000/svg">
<rect height="1102" fill="#555" width="720"></rect>
<text fill="#7f7" font-family="Courier New" font-size="12" xml:space="preserve">
<tspan x="10" y="26"></tspan>
<tspan x="10" y="42">&gt; npmtest-websocket@0.0.1 test /home/travis/build/npmtest/node-npmtest-websocket</tspan>
<tspan x="10" y="58">&gt; (set -e; export PORT=$(utility2 shServerPortRandom); utility2 test test.js)</tspan>
<tspan x="10" y="74"></tspan>
<tspan x="10" y="90"></tspan>
<tspan x="10" y="106">[MODE_BUILD=npmTest] - 2017-04-11T11:13:07Z - npm-testing /home/travis/build/npmtest/node-npmtes\</tspan>
<tspan x="10" y="122">t-websocket</tspan>
<tspan x="10" y="138"></tspan>
<tspan x="10" y="154">merging file:///home/travis/build/npmtest/node-npmtest-websocket/tmp/build/test-report.json to t\</tspan>
<tspan x="10" y="170">est-report</tspan>
<tspan x="10" y="186">&gt; server listening on http-port 56317</tspan>
<tspan x="10" y="202">[node test-case 1 of 6 passed] - testCase_buildLib_default</tspan>
<tspan x="10" y="218">[node test-case 2 of 6 passed] - testCase_buildReadme_default</tspan>
<tspan x="10" y="234">[node test-case 3 of 6 passed] - testCase_buildTest_default</tspan>
<tspan x="10" y="250"></tspan>
<tspan x="10" y="266">browserTest - created electron entry-page /home/travis/build/npmtest/node-npmtest-websocket/tmp/\</tspan>
<tspan x="10" y="282">electron.15b5cb7a0240.30a8d4591a22d.html</tspan>
<tspan x="10" y="298"></tspan>
<tspan x="10" y="314">[node test-case 4 of 6 passed] - testCase_buildApidoc_default</tspan>
<tspan x="10" y="330">Xlib:  extension "RANDR" missing on display ":99.0".</tspan>
<tspan x="10" y="346">merging file:///home/travis/build/npmtest/node-npmtest-websocket/tmp/build/test-report.json to t\</tspan>
<tspan x="10" y="362">est-report</tspan>
<tspan x="10" y="378">Xlib:  extension "RANDR" missing on display ":99.0".</tspan>
<tspan x="10" y="394">[7113:0411/111310:WARNING:audio_manager.cc(314)] Multiple instances of AudioManager detected</tspan>
<tspan x="10" y="410">[7113:0411/111310:WARNING:audio_manager.cc(275)] Multiple instances of AudioManager detected</tspan>
<tspan x="10" y="426">[7131:0411/111310:ERROR:sandbox_linux.cc(343)] InitializeSandbox() called with multiple threads \</tspan>
<tspan x="10" y="442">in process gpu-process. </tspan>
<tspan x="10" y="458"></tspan>
<tspan x="10" y="474">browserTest - opened url http://127.0.0.1:56317?modeTest=1</tspan>
<tspan x="10" y="490"></tspan>
<tspan x="10" y="506">&gt; server listening on http-port 46306</tspan>
<tspan x="10" y="522">[node test-case 5 of 6 passed] - testCase_buildApp_default</tspan>
<tspan x="10" y="538"></tspan>
<tspan x="10" y="554">browserTest - created screenCapture file:///home/travis/build/npmtest/node-npmtest-websocket/tmp\</tspan>
<tspan x="10" y="570">/build/screenCapture.npmTest.browser.%2F.png</tspan>
<tspan x="10" y="586"></tspan>
<tspan x="10" y="602">browserTest - created screenCapture file:///home/travis/build/npmtest/node-npmtest-websocket/tmp\</tspan>
<tspan x="10" y="618">/build/screenCapture.npmTest.browser.%2F.html</tspan>
<tspan x="10" y="634"></tspan>
<tspan x="10" y="650">browserTest - exit-code 0 - http://127.0.0.1:56317?modeTest=1</tspan>
<tspan x="10" y="666"></tspan>
<tspan x="10" y="682"></tspan>
<tspan x="10" y="698">browserTest - merging test-report from /home/travis/build/npmtest/node-npmtest-websocket/tmp/tes\</tspan>
<tspan x="10" y="714">t-report.npmTest.browser.%2F.json</tspan>
<tspan x="10" y="730"></tspan>
<tspan x="10" y="746">[node test-case 6 of 6 passed] - testCase_webpage_default</tspan>
<tspan x="10" y="762">merging file:///home/travis/build/npmtest/node-npmtest-websocket/tmp/build/test-report.json to t\</tspan>
<tspan x="10" y="778">est-report</tspan>
<tspan x="10" y="794"></tspan>
<tspan x="10" y="810">-------------------------------------------------------</tspan>
<tspan x="10" y="826">| test-report - buildCustomOrg - browser - / - Mozilla/5.0 (X11; Linux x86_64) AppleWebKit/537.3\</tspan>
<tspan x="10" y="842">6 (KHTML, like Gecko) Chrome/53.0.2785.143 Electron/1.4.15 Safari/537.36 - 2017-04-11T11:12:09.9\</tspan>
<tspan x="10" y="858">44Z</tspan>
<tspan x="10" y="874">|   76285 ms            0 failed        6 passed      |</tspan>
<tspan x="10" y="890">-------------------------------------------------------</tspan>
<tspan x="10" y="906">| test-report - buildCustomOrg - node - linux v6.10.2 - 2017-04-11T11:12:07.782Z</tspan>
<tspan x="10" y="922">|   16323 ms            0 failed        6 passed      |</tspan>
<tspan x="10" y="938">-------------------------------------------------------</tspan>
<tspan x="10" y="954"></tspan>
<tspan x="10" y="970">created test-report file:///home/travis/build/npmtest/node-npmtest-websocket/tmp/build/test-repo\</tspan>
<tspan x="10" y="986">rt.html</tspan>
<tspan x="10" y="1002"></tspan>
<tspan x="10" y="1018"></tspan>
<tspan x="10" y="1034">npmTest - 0 failed tests</tspan>
<tspan x="10" y="1050"></tspan>
<tspan x="10" y="1066"></tspan>
<tspan x="10" y="1082">[MODE_BUILD=npmTest] - 2017-04-11T11:13:27Z - EXIT_CODE - 0</tspan>
</text>
</svg>
